<svg width="24" height="24" viewBox="0 0 24 24" fill="none" xmlns="http://www.w3.org/2000/svg">
<path fill-rule="evenodd" clip-rule="evenodd" d="M17.0311 2.46888C17.101 2.53854 17.1564 2.62131 17.1942 2.71243C17.232 2.80354 17.2515 2.90122 17.2515 2.99988C17.2515 3.09853 17.232 3.19621 17.1942 3.28733C17.1564 3.37844 17.101 3.46121 17.0311 3.53088L8.56062 11.9999L17.0311 20.4689C17.1719 20.6097 17.2511 20.8007 17.2511 20.9999C17.2511 21.199 17.1719 21.39 17.0311 21.5309C16.8903 21.6717 16.6993 21.7508 16.5001 21.7508C16.301 21.7508 16.1099 21.6717 15.9691 21.5309L6.96912 12.5309C6.89927 12.4612 6.84386 12.3784 6.80605 12.2873C6.76824 12.1962 6.74878 12.0985 6.74878 11.9999C6.74878 11.9012 6.76824 11.8035 6.80605 11.7124C6.84386 11.6213 6.89927 11.5385 6.96912 11.4689L15.9691 2.46888C16.0388 2.39903 16.1216 2.34362 16.2127 2.30581C16.3038 2.268 16.4015 2.24854 16.5001 2.24854C16.5988 2.24854 16.6965 2.268 16.7876 2.30581C16.8787 2.34362 16.9615 2.39903 17.0311 2.46888Z" fill="#4B4B4B"/>
</svg>
